<mxfile host="Electron" modified="2024-07-10T20:10:47.503Z" agent="Mozilla/5.0 (Windows NT 10.0; Win64; x64) AppleWebKit/537.36 (KHTML, like Gecko) draw.io/24.6.4 Chrome/124.0.6367.207 Electron/30.0.6 Safari/537.36" etag="FmKOAc6IJTdKM1P55qj-" version="24.6.4" type="device">
  <diagram name="ページ1" id="LE8fIzdrHe0wcv1LTvfw">
    <mxGraphModel dx="1050" dy="621" grid="1" gridSize="10" guides="1" tooltips="1" connect="1" arrows="1" fold="1" page="1" pageScale="1" pageWidth="1600" pageHeight="1200" math="0" shadow="0">
      <root>
        <mxCell id="0" />
        <mxCell id="cFaB45KztUIKXS-_cTrr-4" value="背景" style="locked=1;" parent="0" visible="0" />
        <mxCell id="cFaB45KztUIKXS-_cTrr-5" value="" style="rounded=0;whiteSpace=wrap;html=1;strokeWidth=3;" parent="cFaB45KztUIKXS-_cTrr-4" vertex="1">
          <mxGeometry x="1" y="1" width="1595" height="1180" as="geometry" />
        </mxCell>
        <mxCell id="cFaB45KztUIKXS-_cTrr-6" value="" style="rounded=0;whiteSpace=wrap;html=1;fillColor=#B3B3B3;fontColor=#333333;strokeColor=#666666;" parent="cFaB45KztUIKXS-_cTrr-4" vertex="1">
          <mxGeometry width="1595" height="60" as="geometry" />
        </mxCell>
        <mxCell id="cFaB45KztUIKXS-_cTrr-7" value="&lt;font style=&quot;font-size: 48px;&quot;&gt;×&lt;/font&gt;" style="rounded=0;whiteSpace=wrap;html=1;" parent="cFaB45KztUIKXS-_cTrr-4" vertex="1">
          <mxGeometry x="1550" y="10" width="40" height="40" as="geometry" />
        </mxCell>
        <mxCell id="cFaB45KztUIKXS-_cTrr-8" value="" style="rounded=0;whiteSpace=wrap;html=1;" parent="cFaB45KztUIKXS-_cTrr-4" vertex="1">
          <mxGeometry x="830" y="670" width="120" height="60" as="geometry" />
        </mxCell>
        <mxCell id="cFaB45KztUIKXS-_cTrr-9" value="ウインドウ" style="locked=1;" parent="0" />
        <mxCell id="cFaB45KztUIKXS-_cTrr-10" value="" style="rounded=0;whiteSpace=wrap;html=1;strokeWidth=3;" parent="cFaB45KztUIKXS-_cTrr-9" vertex="1">
          <mxGeometry x="1" y="1" width="1869" height="1529" as="geometry" />
        </mxCell>
        <mxCell id="cFaB45KztUIKXS-_cTrr-11" value="" style="rounded=0;whiteSpace=wrap;html=1;fillColor=#B3B3B3;fontColor=#333333;strokeColor=#666666;" parent="cFaB45KztUIKXS-_cTrr-9" vertex="1">
          <mxGeometry width="1595" height="60" as="geometry" />
        </mxCell>
        <mxCell id="cFaB45KztUIKXS-_cTrr-12" value="&lt;font style=&quot;font-size: 48px;&quot;&gt;×&lt;/font&gt;" style="rounded=0;whiteSpace=wrap;html=1;" parent="cFaB45KztUIKXS-_cTrr-9" vertex="1">
          <mxGeometry x="1550" y="10" width="40" height="40" as="geometry" />
        </mxCell>
        <mxCell id="cFaB45KztUIKXS-_cTrr-14" value="名称未設定レイヤ" style="" parent="0" />
        <mxCell id="Dh-onaNXAIIfKiB3uO-O-3" value="" style="childLayout=tableLayout;recursiveResize=0;shadow=0;fillColor=none;" parent="cFaB45KztUIKXS-_cTrr-14" vertex="1">
          <mxGeometry x="81" y="949" width="1710" height="350" as="geometry" />
        </mxCell>
        <mxCell id="Dh-onaNXAIIfKiB3uO-O-4" value="" style="shape=tableRow;horizontal=0;startSize=0;swimlaneHead=0;swimlaneBody=0;top=0;left=0;bottom=0;right=0;dropTarget=0;collapsible=0;recursiveResize=0;expand=0;fontStyle=0;fillColor=none;strokeColor=inherit;" parent="Dh-onaNXAIIfKiB3uO-O-3" vertex="1">
          <mxGeometry width="1710" height="70" as="geometry" />
        </mxCell>
        <mxCell id="Dh-onaNXAIIfKiB3uO-O-5" value="&lt;span style=&quot;font-size: 30px; text-align: right;&quot;&gt;提出年&lt;/span&gt;" style="connectable=0;recursiveResize=0;strokeColor=inherit;fillColor=none;align=center;whiteSpace=wrap;html=1;" parent="Dh-onaNXAIIfKiB3uO-O-4" vertex="1">
          <mxGeometry width="110" height="70" as="geometry">
            <mxRectangle width="110" height="70" as="alternateBounds" />
          </mxGeometry>
        </mxCell>
        <mxCell id="Dh-onaNXAIIfKiB3uO-O-6" value="&lt;span style=&quot;font-size: 30px; text-align: right;&quot;&gt;提出回数&lt;/span&gt;" style="connectable=0;recursiveResize=0;strokeColor=inherit;fillColor=none;align=center;whiteSpace=wrap;html=1;" parent="Dh-onaNXAIIfKiB3uO-O-4" vertex="1">
          <mxGeometry x="110" width="130" height="70" as="geometry">
            <mxRectangle width="130" height="70" as="alternateBounds" />
          </mxGeometry>
        </mxCell>
        <mxCell id="Dh-onaNXAIIfKiB3uO-O-7" value="&lt;span style=&quot;font-size: 30px; text-align: right;&quot;&gt;サイト名称&lt;/span&gt;" style="connectable=0;recursiveResize=0;strokeColor=inherit;fillColor=none;align=center;whiteSpace=wrap;html=1;" parent="Dh-onaNXAIIfKiB3uO-O-4" vertex="1">
          <mxGeometry x="240" width="520" height="70" as="geometry">
            <mxRectangle width="520" height="70" as="alternateBounds" />
          </mxGeometry>
        </mxCell>
        <mxCell id="Dh-onaNXAIIfKiB3uO-O-22" value="&lt;br&gt;&lt;span style=&quot;color: rgb(0, 0, 0); font-family: Helvetica; font-size: 30px; font-style: normal; font-variant-ligatures: normal; font-variant-caps: normal; font-weight: 400; letter-spacing: normal; orphans: 2; text-align: right; text-indent: 0px; text-transform: none; widows: 2; word-spacing: 0px; -webkit-text-stroke-width: 0px; white-space: normal; background-color: rgb(251, 251, 251); text-decoration-thickness: initial; text-decoration-style: initial; text-decoration-color: initial; display: inline !important; float: none;&quot;&gt;URL&lt;/span&gt;" style="connectable=0;recursiveResize=0;strokeColor=inherit;fillColor=none;align=center;whiteSpace=wrap;html=1;" parent="Dh-onaNXAIIfKiB3uO-O-4" vertex="1">
          <mxGeometry x="760" width="400" height="70" as="geometry">
            <mxRectangle width="400" height="70" as="alternateBounds" />
          </mxGeometry>
        </mxCell>
        <mxCell id="Dh-onaNXAIIfKiB3uO-O-19" style="connectable=0;recursiveResize=0;strokeColor=inherit;fillColor=none;align=center;whiteSpace=wrap;html=1;" parent="Dh-onaNXAIIfKiB3uO-O-4" vertex="1">
          <mxGeometry x="1160" width="380" height="70" as="geometry">
            <mxRectangle width="380" height="70" as="alternateBounds" />
          </mxGeometry>
        </mxCell>
        <mxCell id="Dh-onaNXAIIfKiB3uO-O-16" style="connectable=0;recursiveResize=0;strokeColor=inherit;fillColor=none;align=center;whiteSpace=wrap;html=1;" parent="Dh-onaNXAIIfKiB3uO-O-4" vertex="1">
          <mxGeometry x="1540" width="170" height="70" as="geometry">
            <mxRectangle width="170" height="70" as="alternateBounds" />
          </mxGeometry>
        </mxCell>
        <mxCell id="Dh-onaNXAIIfKiB3uO-O-8" style="shape=tableRow;horizontal=0;startSize=0;swimlaneHead=0;swimlaneBody=0;top=0;left=0;bottom=0;right=0;dropTarget=0;collapsible=0;recursiveResize=0;expand=0;fontStyle=0;fillColor=none;strokeColor=inherit;" parent="Dh-onaNXAIIfKiB3uO-O-3" vertex="1">
          <mxGeometry y="70" width="1710" height="140" as="geometry" />
        </mxCell>
        <mxCell id="Dh-onaNXAIIfKiB3uO-O-10" value="&lt;span style=&quot;font-size: 30px; text-align: right;&quot;&gt;2024&lt;/span&gt;" style="connectable=0;recursiveResize=0;strokeColor=inherit;fillColor=none;align=center;whiteSpace=wrap;html=1;" parent="Dh-onaNXAIIfKiB3uO-O-8" vertex="1">
          <mxGeometry width="110" height="140" as="geometry">
            <mxRectangle width="110" height="140" as="alternateBounds" />
          </mxGeometry>
        </mxCell>
        <mxCell id="Dh-onaNXAIIfKiB3uO-O-11" value="&lt;div style=&quot;text-align: right;&quot;&gt;&lt;span style=&quot;background-color: initial; font-size: 30px;&quot;&gt;3&lt;/span&gt;&lt;/div&gt;" style="connectable=0;recursiveResize=0;strokeColor=inherit;fillColor=none;align=center;whiteSpace=wrap;html=1;" parent="Dh-onaNXAIIfKiB3uO-O-8" vertex="1">
          <mxGeometry x="110" width="130" height="140" as="geometry">
            <mxRectangle width="130" height="140" as="alternateBounds" />
          </mxGeometry>
        </mxCell>
        <mxCell id="Dh-onaNXAIIfKiB3uO-O-23" value="" style="connectable=0;recursiveResize=0;strokeColor=inherit;fillColor=none;align=center;whiteSpace=wrap;html=1;" parent="Dh-onaNXAIIfKiB3uO-O-8" vertex="1">
          <mxGeometry x="240" width="520" height="140" as="geometry">
            <mxRectangle width="520" height="140" as="alternateBounds" />
          </mxGeometry>
        </mxCell>
        <mxCell id="Dh-onaNXAIIfKiB3uO-O-9" value="&lt;div style=&quot;text-align: right;&quot;&gt;&lt;br&gt;&lt;/div&gt;" style="connectable=0;recursiveResize=0;strokeColor=inherit;fillColor=none;align=center;whiteSpace=wrap;html=1;" parent="Dh-onaNXAIIfKiB3uO-O-8" vertex="1">
          <mxGeometry x="760" width="400" height="140" as="geometry">
            <mxRectangle width="400" height="140" as="alternateBounds" />
          </mxGeometry>
        </mxCell>
        <mxCell id="Dh-onaNXAIIfKiB3uO-O-20" style="connectable=0;recursiveResize=0;strokeColor=inherit;fillColor=none;align=center;whiteSpace=wrap;html=1;" parent="Dh-onaNXAIIfKiB3uO-O-8" vertex="1">
          <mxGeometry x="1160" width="380" height="140" as="geometry">
            <mxRectangle width="380" height="140" as="alternateBounds" />
          </mxGeometry>
        </mxCell>
        <mxCell id="Dh-onaNXAIIfKiB3uO-O-17" style="connectable=0;recursiveResize=0;strokeColor=inherit;fillColor=none;align=center;whiteSpace=wrap;html=1;" parent="Dh-onaNXAIIfKiB3uO-O-8" vertex="1">
          <mxGeometry x="1540" width="170" height="140" as="geometry">
            <mxRectangle width="170" height="140" as="alternateBounds" />
          </mxGeometry>
        </mxCell>
        <mxCell id="Dh-onaNXAIIfKiB3uO-O-12" style="shape=tableRow;horizontal=0;startSize=0;swimlaneHead=0;swimlaneBody=0;top=0;left=0;bottom=0;right=0;dropTarget=0;collapsible=0;recursiveResize=0;expand=0;fontStyle=0;fillColor=none;strokeColor=inherit;" parent="Dh-onaNXAIIfKiB3uO-O-3" vertex="1">
          <mxGeometry y="210" width="1710" height="140" as="geometry" />
        </mxCell>
        <mxCell id="Dh-onaNXAIIfKiB3uO-O-13" value="&lt;span style=&quot;font-size: 30px; text-align: right;&quot;&gt;2025&lt;/span&gt;" style="connectable=0;recursiveResize=0;strokeColor=inherit;fillColor=none;align=center;whiteSpace=wrap;html=1;" parent="Dh-onaNXAIIfKiB3uO-O-12" vertex="1">
          <mxGeometry width="110" height="140" as="geometry">
            <mxRectangle width="110" height="140" as="alternateBounds" />
          </mxGeometry>
        </mxCell>
        <mxCell id="Dh-onaNXAIIfKiB3uO-O-14" value="&lt;span style=&quot;font-size: 30px; text-align: right;&quot;&gt;1&lt;/span&gt;" style="connectable=0;recursiveResize=0;strokeColor=inherit;fillColor=none;align=center;whiteSpace=wrap;html=1;" parent="Dh-onaNXAIIfKiB3uO-O-12" vertex="1">
          <mxGeometry x="110" width="130" height="140" as="geometry">
            <mxRectangle width="130" height="140" as="alternateBounds" />
          </mxGeometry>
        </mxCell>
        <mxCell id="Dh-onaNXAIIfKiB3uO-O-15" value="" style="connectable=0;recursiveResize=0;strokeColor=inherit;fillColor=none;align=center;whiteSpace=wrap;html=1;" parent="Dh-onaNXAIIfKiB3uO-O-12" vertex="1">
          <mxGeometry x="240" width="520" height="140" as="geometry">
            <mxRectangle width="520" height="140" as="alternateBounds" />
          </mxGeometry>
        </mxCell>
        <mxCell id="Dh-onaNXAIIfKiB3uO-O-24" style="connectable=0;recursiveResize=0;strokeColor=inherit;fillColor=none;align=center;whiteSpace=wrap;html=1;" parent="Dh-onaNXAIIfKiB3uO-O-12" vertex="1">
          <mxGeometry x="760" width="400" height="140" as="geometry">
            <mxRectangle width="400" height="140" as="alternateBounds" />
          </mxGeometry>
        </mxCell>
        <mxCell id="Dh-onaNXAIIfKiB3uO-O-21" style="connectable=0;recursiveResize=0;strokeColor=inherit;fillColor=none;align=center;whiteSpace=wrap;html=1;" parent="Dh-onaNXAIIfKiB3uO-O-12" vertex="1">
          <mxGeometry x="1160" width="380" height="140" as="geometry">
            <mxRectangle width="380" height="140" as="alternateBounds" />
          </mxGeometry>
        </mxCell>
        <mxCell id="Dh-onaNXAIIfKiB3uO-O-18" style="connectable=0;recursiveResize=0;strokeColor=inherit;fillColor=none;align=center;whiteSpace=wrap;html=1;" parent="Dh-onaNXAIIfKiB3uO-O-12" vertex="1">
          <mxGeometry x="1540" width="170" height="140" as="geometry">
            <mxRectangle width="170" height="140" as="alternateBounds" />
          </mxGeometry>
        </mxCell>
        <mxCell id="kxWkAaZomFuKM2yIZcbC-108" value="&lt;span style=&quot;font-size: 30px;&quot;&gt;政党交付金使途報告書&lt;/span&gt;" style="rounded=0;whiteSpace=wrap;html=1;align=right;dashed=1;dashPattern=8 8;verticalAlign=bottom;" parent="cFaB45KztUIKXS-_cTrr-14" vertex="1">
          <mxGeometry x="30" y="86" width="310" height="46" as="geometry" />
        </mxCell>
        <mxCell id="kxWkAaZomFuKM2yIZcbC-109" value="&lt;span style=&quot;font-size: 30px;&quot;&gt;政党烏合の衆&lt;br&gt;&lt;/span&gt;" style="rounded=0;whiteSpace=wrap;html=1;align=left;fillColor=#CCCCCC;" parent="cFaB45KztUIKXS-_cTrr-14" vertex="1">
          <mxGeometry x="530" y="87" width="480" height="48" as="geometry" />
        </mxCell>
        <mxCell id="5l2hKBXCzOEWmYN1dR5e-1" value="&lt;span style=&quot;font-size: 30px;&quot;&gt;保存&lt;/span&gt;" style="rounded=1;whiteSpace=wrap;html=1;" parent="cFaB45KztUIKXS-_cTrr-14" vertex="1">
          <mxGeometry x="1343" y="1369" width="210" height="60" as="geometry" />
        </mxCell>
        <mxCell id="5l2hKBXCzOEWmYN1dR5e-2" value="&lt;span style=&quot;font-size: 30px;&quot;&gt;閉じる&lt;/span&gt;" style="rounded=1;whiteSpace=wrap;html=1;" parent="cFaB45KztUIKXS-_cTrr-14" vertex="1">
          <mxGeometry x="1093" y="1369" width="210" height="60" as="geometry" />
        </mxCell>
        <mxCell id="5l2hKBXCzOEWmYN1dR5e-3" value="&lt;span style=&quot;font-size: 30px;&quot;&gt;検索して指定&lt;/span&gt;" style="rounded=1;whiteSpace=wrap;html=1;" parent="cFaB45KztUIKXS-_cTrr-14" vertex="1">
          <mxGeometry x="1040" y="84" width="210" height="51" as="geometry" />
        </mxCell>
        <mxCell id="cdmeLEnnqN9o7mxTk7t2-22" value="&lt;span style=&quot;font-size: 30px;&quot;&gt;指定年&lt;/span&gt;" style="rounded=0;whiteSpace=wrap;html=1;align=right;dashed=1;dashPattern=8 8;verticalAlign=bottom;" parent="cFaB45KztUIKXS-_cTrr-14" vertex="1">
          <mxGeometry x="30" y="147" width="310" height="46" as="geometry" />
        </mxCell>
        <mxCell id="cdmeLEnnqN9o7mxTk7t2-23" value="&lt;font style=&quot;font-size: 30px;&quot;&gt;▼2022&lt;/font&gt;&lt;span style=&quot;font-size: 30px;&quot;&gt;&lt;br&gt;&lt;/span&gt;" style="rounded=0;whiteSpace=wrap;html=1;align=left;" parent="cFaB45KztUIKXS-_cTrr-14" vertex="1">
          <mxGeometry x="360" y="148" width="160" height="48" as="geometry" />
        </mxCell>
        <mxCell id="tZvU9d8wPMiUrcv0yISu-0" value="&lt;font style=&quot;font-size: 30px;&quot;&gt;11223&lt;/font&gt;&lt;span style=&quot;font-size: 30px;&quot;&gt;&lt;br&gt;&lt;/span&gt;" style="rounded=0;whiteSpace=wrap;html=1;align=left;fillColor=#CCCCCC;" parent="cFaB45KztUIKXS-_cTrr-14" vertex="1">
          <mxGeometry x="360" y="87" width="140" height="48" as="geometry" />
        </mxCell>
        <mxCell id="tZvU9d8wPMiUrcv0yISu-1" value="&lt;span style=&quot;font-size: 30px;&quot;&gt;システムにXMLで保存&lt;/span&gt;" style="rounded=0;whiteSpace=wrap;html=1;align=right;dashed=1;dashPattern=8 8;verticalAlign=bottom;" parent="cFaB45KztUIKXS-_cTrr-14" vertex="1">
          <mxGeometry x="30" y="788" width="310" height="46" as="geometry" />
        </mxCell>
        <mxCell id="tZvU9d8wPMiUrcv0yISu-4" value="&lt;font style=&quot;font-size: 30px;&quot;&gt;参照&lt;/font&gt;" style="rounded=1;whiteSpace=wrap;html=1;" parent="cFaB45KztUIKXS-_cTrr-14" vertex="1">
          <mxGeometry x="356" y="792" width="190" height="43" as="geometry" />
        </mxCell>
        <mxCell id="tZvU9d8wPMiUrcv0yISu-5" value="&lt;span style=&quot;font-size: 30px;&quot;&gt;&lt;font color=&quot;#808080&quot;&gt;リンク用URL&lt;/font&gt;&lt;br&gt;&lt;/span&gt;" style="rounded=0;whiteSpace=wrap;html=1;align=left;" parent="cFaB45KztUIKXS-_cTrr-14" vertex="1">
          <mxGeometry x="359" y="560" width="881" height="48" as="geometry" />
        </mxCell>
        <mxCell id="LuSG3avCVRSMw34TRjUb-2" value="&lt;span style=&quot;font-size: 30px;&quot;&gt;総務省&lt;br&gt;&lt;/span&gt;" style="rounded=0;whiteSpace=wrap;html=1;align=left;fillColor=#CCCCCC;" parent="cFaB45KztUIKXS-_cTrr-14" vertex="1">
          <mxGeometry x="530" y="487" width="480" height="48" as="geometry" />
        </mxCell>
        <mxCell id="LuSG3avCVRSMw34TRjUb-3" value="&lt;span style=&quot;font-size: 30px;&quot;&gt;検索して指定&lt;/span&gt;" style="rounded=1;whiteSpace=wrap;html=1;fillColor=#CCCCCC;" parent="cFaB45KztUIKXS-_cTrr-14" vertex="1">
          <mxGeometry x="1040" y="484" width="210" height="51" as="geometry" />
        </mxCell>
        <mxCell id="LuSG3avCVRSMw34TRjUb-4" value="&lt;font style=&quot;font-size: 30px;&quot;&gt;1&lt;/font&gt;&lt;span style=&quot;font-size: 30px;&quot;&gt;&lt;br&gt;&lt;/span&gt;" style="rounded=0;whiteSpace=wrap;html=1;align=left;fillColor=#CCCCCC;" parent="cFaB45KztUIKXS-_cTrr-14" vertex="1">
          <mxGeometry x="360" y="487" width="140" height="48" as="geometry" />
        </mxCell>
        <mxCell id="LuSG3avCVRSMw34TRjUb-10" value="&lt;span style=&quot;font-size: 30px;&quot;&gt;提出先&lt;br&gt;&lt;/span&gt;" style="rounded=0;whiteSpace=wrap;html=1;align=right;dashed=1;dashPattern=8 8;verticalAlign=top;" parent="cFaB45KztUIKXS-_cTrr-14" vertex="1">
          <mxGeometry x="29" y="487" width="310" height="53" as="geometry" />
        </mxCell>
        <mxCell id="LuSG3avCVRSMw34TRjUb-11" value="&lt;span style=&quot;font-size: 30px;&quot;&gt;リンクURL&lt;br&gt;&lt;/span&gt;" style="rounded=0;whiteSpace=wrap;html=1;align=right;dashed=1;dashPattern=8 8;verticalAlign=top;" parent="cFaB45KztUIKXS-_cTrr-14" vertex="1">
          <mxGeometry x="29" y="558" width="310" height="53" as="geometry" />
        </mxCell>
        <mxCell id="LuSG3avCVRSMw34TRjUb-12" value="&lt;span style=&quot;font-size: 30px;&quot;&gt;&lt;b&gt;公式情報&lt;/b&gt;&lt;/span&gt;" style="rounded=0;whiteSpace=wrap;html=1;align=left;dashed=1;dashPattern=8 8;verticalAlign=bottom;" parent="cFaB45KztUIKXS-_cTrr-14" vertex="1">
          <mxGeometry x="21" y="351" width="310" height="46" as="geometry" />
        </mxCell>
        <mxCell id="LuSG3avCVRSMw34TRjUb-13" value="&lt;span style=&quot;font-size: 30px;&quot;&gt;&lt;b&gt;非公式情報&lt;/b&gt;&lt;/span&gt;" style="rounded=0;whiteSpace=wrap;html=1;align=left;dashed=1;dashPattern=8 8;verticalAlign=bottom;" parent="cFaB45KztUIKXS-_cTrr-14" vertex="1">
          <mxGeometry x="21" y="865" width="310" height="46" as="geometry" />
        </mxCell>
        <mxCell id="LuSG3avCVRSMw34TRjUb-16" value="&lt;span style=&quot;font-size: 30px;&quot;&gt;項目を追加&lt;/span&gt;" style="rounded=1;whiteSpace=wrap;html=1;" parent="cFaB45KztUIKXS-_cTrr-14" vertex="1">
          <mxGeometry x="80" y="1334" width="210" height="51" as="geometry" />
        </mxCell>
        <mxCell id="ou-WtTb6Jt9EB9S26xZP-0" value="&lt;span style=&quot;font-size: 30px;&quot;&gt;提出日&lt;/span&gt;" style="rounded=0;whiteSpace=wrap;html=1;align=right;dashed=1;dashPattern=8 8;verticalAlign=bottom;" parent="cFaB45KztUIKXS-_cTrr-14" vertex="1">
          <mxGeometry x="30" y="272" width="310" height="46" as="geometry" />
        </mxCell>
        <mxCell id="ou-WtTb6Jt9EB9S26xZP-1" value="&lt;font style=&quot;font-size: 30px;&quot;&gt;▼ 2022.12.03&lt;/font&gt;&lt;span style=&quot;font-size: 30px;&quot;&gt;&lt;br&gt;&lt;/span&gt;" style="rounded=0;whiteSpace=wrap;html=1;align=left;" parent="cFaB45KztUIKXS-_cTrr-14" vertex="1">
          <mxGeometry x="360" y="273" width="270" height="48" as="geometry" />
        </mxCell>
        <mxCell id="ou-WtTb6Jt9EB9S26xZP-2" value="&lt;span style=&quot;font-size: 30px;&quot;&gt;公式掲載日&lt;/span&gt;" style="rounded=0;whiteSpace=wrap;html=1;align=right;dashed=1;dashPattern=8 8;verticalAlign=bottom;" parent="cFaB45KztUIKXS-_cTrr-14" vertex="1">
          <mxGeometry x="30" y="711" width="310" height="46" as="geometry" />
        </mxCell>
        <mxCell id="ou-WtTb6Jt9EB9S26xZP-3" value="&lt;font style=&quot;font-size: 30px;&quot;&gt;2023.12.01&lt;/font&gt;&lt;span style=&quot;font-size: 30px;&quot;&gt;&lt;br&gt;&lt;/span&gt;" style="rounded=0;whiteSpace=wrap;html=1;align=right;" parent="cFaB45KztUIKXS-_cTrr-14" vertex="1">
          <mxGeometry x="360" y="709" width="160" height="48" as="geometry" />
        </mxCell>
        <mxCell id="ou-WtTb6Jt9EB9S26xZP-4" value="&lt;span style=&quot;font-size: 30px;&quot;&gt;最大提出回数&lt;/span&gt;" style="rounded=0;whiteSpace=wrap;html=1;align=right;dashed=1;dashPattern=8 8;verticalAlign=bottom;" parent="cFaB45KztUIKXS-_cTrr-14" vertex="1">
          <mxGeometry x="30" y="211" width="310" height="46" as="geometry" />
        </mxCell>
        <mxCell id="ou-WtTb6Jt9EB9S26xZP-5" value="&lt;font style=&quot;font-size: 30px;&quot;&gt;4&lt;/font&gt;&lt;span style=&quot;font-size: 30px;&quot;&gt;&lt;br&gt;&lt;/span&gt;" style="rounded=0;whiteSpace=wrap;html=1;align=left;fillColor=#CCCCCC;" parent="cFaB45KztUIKXS-_cTrr-14" vertex="1">
          <mxGeometry x="360" y="209" width="160" height="48" as="geometry" />
        </mxCell>
        <mxCell id="Dh-onaNXAIIfKiB3uO-O-2" value="&lt;font style=&quot;font-size: 30px;&quot;&gt;読み取りして保存&lt;/font&gt;" style="rounded=1;whiteSpace=wrap;html=1;" parent="cFaB45KztUIKXS-_cTrr-14" vertex="1">
          <mxGeometry x="576" y="792" width="324" height="43" as="geometry" />
        </mxCell>
        <mxCell id="Dh-onaNXAIIfKiB3uO-O-25" value="&lt;font style=&quot;font-size: 30px;&quot;&gt;参照&lt;/font&gt;" style="rounded=1;whiteSpace=wrap;html=1;" parent="cFaB45KztUIKXS-_cTrr-14" vertex="1">
          <mxGeometry x="1264" y="1039" width="190" height="43" as="geometry" />
        </mxCell>
        <mxCell id="Dh-onaNXAIIfKiB3uO-O-26" value="&lt;font style=&quot;font-size: 30px;&quot;&gt;読み取りして保存&lt;/font&gt;" style="rounded=1;whiteSpace=wrap;html=1;" parent="cFaB45KztUIKXS-_cTrr-14" vertex="1">
          <mxGeometry x="1264" y="1099" width="324" height="43" as="geometry" />
        </mxCell>
        <mxCell id="Dh-onaNXAIIfKiB3uO-O-27" value="&lt;span style=&quot;font-size: 30px;&quot;&gt;保存個人サイト1&lt;/span&gt;" style="rounded=0;whiteSpace=wrap;html=1;align=left;fillColor=#FFFFFF;" parent="cFaB45KztUIKXS-_cTrr-14" vertex="1">
          <mxGeometry x="330" y="1056" width="480" height="48" as="geometry" />
        </mxCell>
        <mxCell id="Dh-onaNXAIIfKiB3uO-O-28" value="&lt;font style=&quot;font-size: 30px;&quot;&gt;削除&lt;/font&gt;" style="rounded=1;whiteSpace=wrap;html=1;" parent="cFaB45KztUIKXS-_cTrr-14" vertex="1">
          <mxGeometry x="1651" y="1066" width="106" height="43" as="geometry" />
        </mxCell>
        <mxCell id="Dh-onaNXAIIfKiB3uO-O-29" value="&lt;font style=&quot;font-size: 30px;&quot;&gt;参照&lt;/font&gt;" style="rounded=1;whiteSpace=wrap;html=1;" parent="cFaB45KztUIKXS-_cTrr-14" vertex="1">
          <mxGeometry x="1264" y="1179" width="190" height="43" as="geometry" />
        </mxCell>
        <mxCell id="Dh-onaNXAIIfKiB3uO-O-30" value="&lt;font style=&quot;font-size: 30px;&quot;&gt;読み取りして保存&lt;/font&gt;" style="rounded=1;whiteSpace=wrap;html=1;" parent="cFaB45KztUIKXS-_cTrr-14" vertex="1">
          <mxGeometry x="1264" y="1239" width="324" height="43" as="geometry" />
        </mxCell>
        <mxCell id="Dh-onaNXAIIfKiB3uO-O-31" value="&lt;span style=&quot;font-size: 30px;&quot;&gt;保存個人サイト2&lt;/span&gt;&lt;span style=&quot;font-size: 30px;&quot;&gt;&lt;br&gt;&lt;/span&gt;" style="rounded=0;whiteSpace=wrap;html=1;align=left;" parent="cFaB45KztUIKXS-_cTrr-14" vertex="1">
          <mxGeometry x="330" y="1206" width="480" height="48" as="geometry" />
        </mxCell>
        <mxCell id="tZvU9d8wPMiUrcv0yISu-7" value="&lt;span style=&quot;font-size: 30px;&quot;&gt;&lt;font color=&quot;#808080&quot;&gt;リンク用URL&lt;/font&gt;&lt;br&gt;&lt;/span&gt;" style="rounded=0;whiteSpace=wrap;html=1;align=left;" parent="cFaB45KztUIKXS-_cTrr-14" vertex="1">
          <mxGeometry x="858" y="1031" width="342" height="113" as="geometry" />
        </mxCell>
        <mxCell id="Dh-onaNXAIIfKiB3uO-O-32" value="&lt;font style=&quot;font-size: 30px;&quot;&gt;削除&lt;/font&gt;" style="rounded=1;whiteSpace=wrap;html=1;" parent="cFaB45KztUIKXS-_cTrr-14" vertex="1">
          <mxGeometry x="1651" y="1196" width="106" height="43" as="geometry" />
        </mxCell>
        <mxCell id="Dh-onaNXAIIfKiB3uO-O-33" value="&lt;span style=&quot;font-size: 30px;&quot;&gt;&lt;font color=&quot;#808080&quot;&gt;リンク用URL&lt;/font&gt;&lt;br&gt;&lt;/span&gt;" style="rounded=0;whiteSpace=wrap;html=1;align=left;" parent="cFaB45KztUIKXS-_cTrr-14" vertex="1">
          <mxGeometry x="858" y="1173" width="342" height="113" as="geometry" />
        </mxCell>
        <mxCell id="bX9Ox2TWrJUuLDmMwm-Z-0" value="&lt;span style=&quot;font-size: 30px;&quot;&gt;提出回&lt;/span&gt;" style="rounded=0;whiteSpace=wrap;html=1;align=right;dashed=1;dashPattern=8 8;verticalAlign=bottom;" parent="cFaB45KztUIKXS-_cTrr-14" vertex="1">
          <mxGeometry x="30" y="421" width="310" height="46" as="geometry" />
        </mxCell>
        <mxCell id="bX9Ox2TWrJUuLDmMwm-Z-1" value="&lt;font style=&quot;font-size: 30px;&quot;&gt;2022&lt;/font&gt;&lt;span style=&quot;font-size: 30px;&quot;&gt;&lt;br&gt;&lt;/span&gt;" style="rounded=0;whiteSpace=wrap;html=1;align=right;" parent="cFaB45KztUIKXS-_cTrr-14" vertex="1">
          <mxGeometry x="360" y="419" width="160" height="48" as="geometry" />
        </mxCell>
        <mxCell id="bX9Ox2TWrJUuLDmMwm-Z-2" value="&lt;span style=&quot;font-size: 30px;&quot;&gt;&lt;span style=&quot;font-weight: normal;&quot;&gt;年　提出日&lt;/span&gt;&lt;/span&gt;" style="rounded=0;whiteSpace=wrap;html=1;align=left;dashed=1;dashPattern=8 8;verticalAlign=bottom;fontStyle=1" parent="cFaB45KztUIKXS-_cTrr-14" vertex="1">
          <mxGeometry x="551" y="419" width="169" height="46" as="geometry" />
        </mxCell>
        <mxCell id="bX9Ox2TWrJUuLDmMwm-Z-3" value="&lt;font style=&quot;font-size: 30px;&quot;&gt;2023.12.01&lt;/font&gt;&lt;span style=&quot;font-size: 30px;&quot;&gt;&lt;br&gt;&lt;/span&gt;" style="rounded=0;whiteSpace=wrap;html=1;align=right;" parent="cFaB45KztUIKXS-_cTrr-14" vertex="1">
          <mxGeometry x="740" y="419" width="200" height="48" as="geometry" />
        </mxCell>
        <mxCell id="bX9Ox2TWrJUuLDmMwm-Z-5" value="&lt;span style=&quot;font-size: 30px;&quot;&gt;削除&lt;/span&gt;" style="rounded=1;whiteSpace=wrap;html=1;" parent="cFaB45KztUIKXS-_cTrr-14" vertex="1">
          <mxGeometry x="980" y="416" width="170" height="51" as="geometry" />
        </mxCell>
        <mxCell id="bX9Ox2TWrJUuLDmMwm-Z-8" value="&lt;span style=&quot;font-size: 30px;&quot;&gt;掲載状況&lt;br&gt;&lt;/span&gt;" style="rounded=0;whiteSpace=wrap;html=1;align=right;dashed=1;dashPattern=8 8;verticalAlign=top;" parent="cFaB45KztUIKXS-_cTrr-14" vertex="1">
          <mxGeometry x="28" y="638" width="310" height="53" as="geometry" />
        </mxCell>
        <mxCell id="bX9Ox2TWrJUuLDmMwm-Z-9" value="&lt;span style=&quot;font-size: 30px;&quot;&gt;&lt;span style=&quot;font-weight: normal;&quot;&gt;☑現在掲載されていない&lt;/span&gt;&lt;/span&gt;" style="rounded=0;whiteSpace=wrap;html=1;align=left;dashed=1;dashPattern=8 8;verticalAlign=bottom;fontStyle=1" parent="cFaB45KztUIKXS-_cTrr-14" vertex="1">
          <mxGeometry x="361" y="639" width="529" height="46" as="geometry" />
        </mxCell>
      </root>
    </mxGraphModel>
  </diagram>
</mxfile>
